# xmcd
#
# Track frame offsets: 
#        150
#        13653
#        31857
#        46625
#        61507
#        80259
#        96429
#        112095
#        132579
#        149763
#        166540
#        184420
#        200854
#
# Disc length: 3030 seconds
#
# Revision: 0
# Processed by: cddbd v1.5.2PL0 Copyright (c) Steve Scherf et al.
# Submitted via: ExactAudioCopy v0.99pb5
#
DISCID=b20bd40d
DTITLE=Cody Johnson - A Different Day
DYEAR=2011
DGENRE=Country
TTITLE0=18 Wheels
TTITLE1=Guilty As Can Be
TTITLE2=Diamond In My Pocket
TTITLE3=Keep Her Man
TTITLE4=A Different Day
TTITLE5=Ride With Me
TTITLE6=The Way She Loves Me
TTITLE7=What's Left Of Texas?
TTITLE8=Get Back Home To You
TTITLE9=Ocean Of Whiskey
TTITLE10=I Don't Care About You
TTITLE11=Jesus Ain't Watching
TTITLE12=The Grandpa Song
EXTD=
EXTT0=
EXTT1=
EXTT2=
EXTT3=
EXTT4=
EXTT5=
EXTT6=
EXTT7=
EXTT8=
EXTT9=
EXTT10=
EXTT11=
EXTT12=
PLAYORDER=
